PathFileType	4	(X/Y/Z)	C:/Users/beibeiliu/ov580/test_trc/User3\sequence.37_training_dense_left.trc
DataRate	CameraRate	NumFrames	NumMarkers	Units	OrigDataRate	OrigDataStartFrame	OrigNumFrames
120	120	7	19	mm	120	172	274
Frame#	Time	ThumbCMC			ThumbMCP			ThumbIP			ThumbTip			IndexMCP			IndexPIP			IndexTip			MiddleMCP			MiddlePIP			MiddleTip			RingMCP			RingPIP			RingTip			PinkyMCP			PinkyPIP			PinkyTip			BackHand1			BackHand2			BackHand3	
		X0	Y0	Z0	X1	Y1	Z1	X2	Y2	Z2	X3	Y3	Z3	X4	Y4	Z4	X5	Y5	Z5	X6	Y6	Z6	X7	Y7	Z7	X8	Y8	Z8	X9	Y9	Z9	X10	Y10	Z10	X11	Y11	Z11	X12	Y12	Z12	X13	Y13	Z13	X14	Y14	Z14	X15	Y15	Z15	X16	Y16	Z16	X17	Y17	Z17	X18	Y18	Z18	
171	1.425	-137.281	-33.6009	35.7079	-119.463	-52.2997	15.9818	-120.029	-69.3655	-10.5586	-137.079	-79.9356	-21.7396	-134.804	-39.5868	-46.0363	-132.523	-68.2089	-50.8665	-139.243	-73.5339	-17.5642	-157.282	-44.8091	-53.163	-150.78	-75.4869	-53.3321	-159.499	-74.7951	-12.1689	-175.001	-51.3247	-46.3171	-173.255	-80.6108	-42.3991	-173.21	-72.8039	-5.99188	-196.315	-54.0946	-36.7822	-186.78	-81.4934	-31.7508	-185.925	-76.0672	-3.96461	-193.155	-16.0328	-6.4016	-200.006	-9.44859	28.7235	-160.363	-9.62039	19.6833	
172	1.43333	-134.229	-22.6681	38.5084	-110.014	-38.8323	19.6238	-110.926	-52.8171	-9.40691	-127.728	-67.495	-25.4877	-130.595	-19.6263	-39.3294	-125.135	-50.2573	-51.3826	-128.711	-59.2049	-19.5254	-153.593	-25.8923	-49.7409	-142.879	-57.305	-54.4362	-153.701	-60.3055	-13.9034	-167.561	-35.1563	-48.6564	-164.924	-64.8018	-43.5146	-168.884	-61.2335	-11.5511	-192.457	-39.9427	-38.513	-180.521	-66.4555	-35.116	-181.105	-64.24	-2.97475	-185.155	-2.98578	-1.57764	-197.544	-1.1938	28.3843	-162.763	1.53765	23.0954	
173	1.44167	-133.676	-10.5736	39.5832	-110.373	-22.7655	19.5731	-101.307	-36.3291	-8.98072	-120.244	-46.6766	-24.1774	-128.311	0.679437	-35.8937	-117.669	-30.0638	-49.0738	-127.332	-42.0664	-22.1716	-147.531	-3.84732	-47.4862	-136.825	-35.3114	-55.9394	-145.276	-43.988	-17.0184	-163.952	-11.9337	-44.0686	-161.138	-41.789	-51.1375	-157.134	-46.2396	-16.2774	-183.807	-19.4495	-39.3201	-172.837	-45.497	-40.6529	-174.874	-51.8054	-10.224	-182.586	12.204	5.79958	-192.581	7.69684	30.7264	-154.949	15.3293	26.6543	
174	1.45	-130.333	0.544259	42.868	-107.386	-7.07816	22.5838	-95.3005	-18.4026	-5.96372	-115.136	-26.5969	-21.9342	-121.36	21.5593	-28.4791	-113.894	-6.08552	-48.0507	-119.814	-23.4994	-19.7924	-142.711	16.9915	-43.7465	-132.174	-12.9712	-55.4231	-139.742	-28.1936	-23.6455	-161.855	7.08403	-44.6437	-149.274	-20.0624	-50.5712	-152.431	-30.0971	-19.8444	-179.447	-1.42532	-37.6034	-165.33	-23.7468	-44.397	-167.254	-36.6921	-16.2239	-183.477	24.3234	6.69119	-192.986	18.0039	35.5375	-155.072	26.0745	33.4006	
175	1.45833	-128.62	10.6623	49.7398	-99.772	5.51432	27.1469	-93.6002	-2.42757	-1.18436	-105.44	-13.4466	-23.6567	-122.329	37.4429	-25.5967	-105.18	17.9237	-45.1105	-109.962	-6.5716	-19.7473	-139.884	35.2348	-40.0099	-127.873	10.6086	-56.152	-133.942	-11.2605	-19.8843	-156.318	24.1639	-39.2959	-142.895	-1.548	-49.1947	-144.665	-15.9625	-22.4089	-175.126	14.1334	-35.7888	-160.961	-6.97619	-44.0506	-159.239	-23.9136	-17.9461	-180.05	31.9954	16.3348	-188.222	25.364	40.1369	-153.932	35.4331	39.541	
176	1.46667	-122.503	20.2145	49.2331	-96.4142	16.0973	29.5051	-88.5479	10.7109	1.3582	-102.051	2.61697	-21.5605	-119.012	52.4306	-19.4581	-105.085	30.3159	-40.4977	-106.47	9.05036	-18.6302	-135.686	50.5853	-34.3388	-120.398	28.9667	-50.9212	-126.349	2.77561	-16.8848	-152.789	38.2582	-35.0675	-141.763	14.1499	-48.7648	-139.47	-1.02041	-16.2018	-166.887	28.8385	-29.5304	-155.44	4.79486	-41.7111	-155.013	-10.7388	-17.0889	-178.218	41.8747	18.6796	-186.97	32.2836	43.1862	-149.738	45.971	42.1679	
177	1.475	-116.535	27.4984	54.8363	-92.2176	25.5212	30.3023	-86.4575	23.3935	2.93767	-104.901	18.0307	-21.4074	-111.559	66.7642	-16.1084	-99.5487	45.5594	-36.2303	-102.571	22.3895	-10.0844	-132.337	63.5349	-25.9998	-116.72	39.5501	-46.3975	-123.038	16.782	-17.1875	-144.784	52.8885	-30.191	-136.167	29.1619	-45.3284	-135.333	11.6334	-13.2783	-168.022	39.5881	-25.5749	-151.834	20.4134	-40.8475	-151.018	1.8248	-14.4746	-173.653	52.441	20.0118	-185.53	35.7015	47.7411	-149.438	52.0258	48.4931	
